<?xml version="1.0" encoding="UTF-8" standalone="no"?>
<!-- Created with Inkscape (http://www.inkscape.org/) -->

<svg
   xmlns:dc="http://purl.org/dc/elements/1.1/"
   xmlns:cc="http://creativecommons.org/ns#"
   xmlns:rdf="http://www.w3.org/1999/02/22-rdf-syntax-ns#"
   xmlns:svg="http://www.w3.org/2000/svg"
   xmlns="http://www.w3.org/2000/svg"
   xmlns:xlink="http://www.w3.org/1999/xlink"
   xmlns:sodipodi="http://sodipodi.sourceforge.net/DTD/sodipodi-0.dtd"
   xmlns:inkscape="http://www.inkscape.org/namespaces/inkscape"
   width="6in"
   height="11in"
   viewBox="0 0 540.00001 990.00002"
   id="svg2"
   version="1.1"
   inkscape:version="0.91 r13725"
   sodipodi:docname="banana warrior.svg">
  <defs
     id="defs4">
    <inkscape:path-effect
       effect="skeletal"
       id="path-effect5023"
       is_visible="true"
       pattern="m 0,67.362175 c 0,-2.76 2.24,-5 5,-5 2.76,0 5,2.24 5,5 0,2.76 -2.24,5 -5,5 -2.76,0 -5,-2.24 -5,-5 z"
       copytype="single_stretched"
       prop_scale="1"
       scale_y_rel="false"
       spacing="0"
       normal_offset="0"
       tang_offset="0"
       prop_units="false"
       vertical_pattern="false"
       fuse_tolerance="0" />
    <inkscape:path-effect
       effect="skeletal"
       id="path-effect5019"
       is_visible="true"
       pattern="m 0,67.362175 c 0,-2.76 2.24,-5 5,-5 2.76,0 5,2.24 5,5 0,2.76 -2.24,5 -5,5 -2.76,0 -5,-2.24 -5,-5 z"
       copytype="single_stretched"
       prop_scale="1"
       scale_y_rel="false"
       spacing="0"
       normal_offset="0"
       tang_offset="0"
       prop_units="false"
       vertical_pattern="false"
       fuse_tolerance="0" />
    <linearGradient
       inkscape:collect="always"
       id="linearGradient63400">
      <stop
         style="stop-color:#ffffff;stop-opacity:1;"
         offset="0"
         id="stop63402" />
      <stop
         style="stop-color:#ffffff;stop-opacity:0;"
         offset="1"
         id="stop63404" />
    </linearGradient>
    <linearGradient
       inkscape:collect="always"
       id="linearGradient4349">
      <stop
         style="stop-color:#707070;stop-opacity:1;"
         offset="0"
         id="stop4351" />
      <stop
         style="stop-color:#707070;stop-opacity:0;"
         offset="1"
         id="stop4353" />
    </linearGradient>
    <linearGradient
       inkscape:collect="always"
       id="linearGradient4318">
      <stop
         style="stop-color:#eaeaea;stop-opacity:1"
         offset="0"
         id="stop4320" />
      <stop
         id="stop4326"
         offset="0.19023095"
         style="stop-color:#b2b2b2;stop-opacity:1" />
      <stop
         style="stop-color:#6e6e6e;stop-opacity:1"
         offset="1"
         id="stop4322" />
    </linearGradient>
    <linearGradient
       inkscape:collect="always"
       id="linearGradient4230">
      <stop
         style="stop-color:#cd9c00;stop-opacity:1;"
         offset="0"
         id="stop4232" />
      <stop
         style="stop-color:#cd9c00;stop-opacity:0;"
         offset="1"
         id="stop4234" />
    </linearGradient>
    <inkscape:path-effect
       effect="skeletal"
       id="path-effect4190"
       is_visible="true"
       pattern="m 209.75462,246.55026 c 24.43757,-23.20022 48.87515,-46.40045 73.31272,-69.60067 C 245.63765,118.17569 208.20795,59.401796 170.77826,0.62789954 c 0,-5.38e-6 -10e-6,-1.077e-5 -10e-6,-1.615e-5 C 114.1697,25.065453 57.56115,49.503023 0.95260002,73.940593 c 9.88e-6,8e-6 1.976e-5,1.6e-5 2.964e-5,2.4e-5 C 42.021926,107.05797 82.855689,140.46741 123.44979,174.16556 c 28.89015,23.98242 57.65892,48.11106 86.30483,72.3847 z"
       copytype="single_stretched"
       prop_scale="1"
       scale_y_rel="false"
       spacing="0"
       normal_offset="0"
       tang_offset="0"
       prop_units="false"
       vertical_pattern="false"
       fuse_tolerance="0" />
    <inkscape:path-effect
       effect="spiro"
       id="path-effect4188"
       is_visible="true" />
    <inkscape:path-effect
       effect="spiro"
       id="path-effect4152"
       is_visible="true" />
    <inkscape:path-effect
       effect="skeletal"
       id="path-effect4154"
       is_visible="true"
       pattern="m -0.0903404,-0.01852528 1,0"
       copytype="single_stretched"
       prop_scale="1"
       scale_y_rel="false"
       spacing="0"
       normal_offset="0"
       tang_offset="0"
       prop_units="false"
       vertical_pattern="false"
       fuse_tolerance="0" />
    <linearGradient
       inkscape:collect="always"
       xlink:href="#linearGradient4230"
       id="linearGradient4236"
       x1="450.75009"
       y1="461.55722"
       x2="408.42679"
       y2="679.11652"
       gradientUnits="userSpaceOnUse"
       gradientTransform="matrix(1.8830147,0,0,1.8830147,-564.96397,-285.12008)" />
    <linearGradient
       inkscape:collect="always"
       xlink:href="#linearGradient4230"
       id="linearGradient4264"
       x1="394.71826"
       y1="467.10706"
       x2="414.97479"
       y2="524.09296"
       gradientUnits="userSpaceOnUse"
       gradientTransform="matrix(1.8830147,0,0,1.8830147,-564.96397,-285.12008)" />
    <radialGradient
       inkscape:collect="always"
       xlink:href="#linearGradient4318"
       id="radialGradient4324"
       cx="385.21463"
       cy="282.80298"
       fx="385.21463"
       fy="282.80298"
       r="52.419052"
       gradientTransform="matrix(-2.3538501,1.002856,-1.4551705,-3.4154992,1479.7504,786.73577)"
       gradientUnits="userSpaceOnUse" />
    <radialGradient
       inkscape:collect="always"
       xlink:href="#linearGradient4349"
       id="radialGradient4359"
       cx="391.32715"
       cy="297.9473"
       fx="391.32715"
       fy="297.9473"
       r="34.889217"
       gradientTransform="matrix(4.6439993,-1.669482,0.72867769,2.0269632,-1862.5197,322.08532)"
       gradientUnits="userSpaceOnUse" />
    <clipPath
       clipPathUnits="userSpaceOnUse"
       id="clipPath63388">
      <path
         style="opacity:1;fill:url(#linearGradient5042);fill-opacity:1;stroke:#f2c121;stroke-width:1.59318995;stroke-linejoin:round;stroke-miterlimit:4;stroke-dasharray:none;stroke-opacity:1"
         d="m 342.4738,379.3235 c -2.44284,13.17271 -11.48972,3.64673 -24.81147,5.47473 -13.2271,1.81502 -23.93501,-3.77614 -23.59777,-8.08314 0.19269,-2.46062 2.65783,-2.67877 25.09388,-7.4899 15.5477,-3.334 25.38744,-1.07512 23.31536,10.09831 z"
         id="use63390"
         inkscape:connector-curvature="0"
         sodipodi:nodetypes="sssss" />
    </clipPath>
    <linearGradient
       inkscape:collect="always"
       xlink:href="#linearGradient4225"
       id="linearGradient4231"
       x1="590"
       y1="568.50195"
       x2="660.66602"
       y2="568.50195"
       gradientUnits="userSpaceOnUse"
       gradientTransform="matrix(1.8830113,-0.00355719,0.00355719,1.8830113,-526.85158,-364.44772)" />
    <linearGradient
       inkscape:collect="always"
       id="linearGradient4225">
      <stop
         style="stop-color:#c80000;stop-opacity:1"
         offset="0"
         id="stop4227" />
      <stop
         id="stop4233"
         offset="0.77830911"
         style="stop-color:#ff4a4a;stop-opacity:1" />
      <stop
         style="stop-color:#ff1f1f;stop-opacity:1"
         offset="1"
         id="stop4229" />
    </linearGradient>
    <linearGradient
       inkscape:collect="always"
       xlink:href="#linearGradient4225-9"
       id="linearGradient5644"
       gradientUnits="userSpaceOnUse"
       x1="590"
       y1="568.50195"
       x2="660.66602"
       y2="568.50195"
       gradientTransform="matrix(1.8830113,-0.00355719,0.00355719,1.8830113,-526.85158,-364.44772)" />
    <linearGradient
       id="linearGradient4225-9"
       inkscape:collect="always">
      <stop
         id="stop5638"
         offset="0"
         style="stop-color:#c80000;stop-opacity:0" />
      <stop
         style="stop-color:#ffffff;stop-opacity:0.29842931"
         offset="0.77830911"
         id="stop5640" />
      <stop
         id="stop5642"
         offset="1"
         style="stop-color:#ffffff;stop-opacity:0.11518325" />
    </linearGradient>
    <linearGradient
       inkscape:collect="always"
       xlink:href="#linearGradient63400"
       id="linearGradient5042"
       gradientUnits="userSpaceOnUse"
       x1="324.86255"
       y1="376.62668"
       x2="343.01016"
       y2="373.75378" />
  </defs>
  <sodipodi:namedview
     id="base"
     pagecolor="#ffffff"
     bordercolor="#666666"
     borderopacity="1.0"
     inkscape:pageopacity="0.0"
     inkscape:pageshadow="2"
     inkscape:zoom="1"
     inkscape:cx="332.70415"
     inkscape:cy="615.31194"
     inkscape:document-units="px"
     inkscape:current-layer="layer1"
     showgrid="false"
     inkscape:object-paths="true"
     inkscape:snap-intersection-paths="true"
     inkscape:object-nodes="true"
     inkscape:snap-smooth-nodes="true"
     inkscape:snap-global="false"
     inkscape:snap-center="true"
     inkscape:window-width="1440"
     inkscape:window-height="797"
     inkscape:window-x="0"
     inkscape:window-y="0"
     inkscape:window-maximized="1"
     inkscape:snap-object-midpoints="true"
     units="in"
     width="6in" />
  <metadata
     id="metadata7">
    <rdf:RDF>
      <cc:Work
         rdf:about="">
        <dc:format>image/svg+xml</dc:format>
        <dc:type
           rdf:resource="http://purl.org/dc/dcmitype/StillImage" />
        <dc:title></dc:title>
      </cc:Work>
    </rdf:RDF>
  </metadata>
  <g
     inkscape:label="Layer 1"
     inkscape:groupmode="layer"
     id="layer1"
     transform="translate(0,-62.362175)">
    <path
       inkscape:connector-curvature="0"
       style="color:#000000;font-style:normal;font-variant:normal;font-weight:normal;font-stretch:normal;font-size:medium;line-height:normal;font-family:sans-serif;text-indent:0;text-align:start;text-decoration:none;text-decoration-line:none;text-decoration-style:solid;text-decoration-color:#000000;letter-spacing:normal;word-spacing:normal;text-transform:none;direction:ltr;block-progression:tb;writing-mode:lr-tb;baseline-shift:baseline;text-anchor:start;white-space:normal;clip-rule:nonzero;display:inline;overflow:visible;visibility:visible;opacity:1;isolation:auto;mix-blend-mode:normal;color-interpolation:sRGB;color-interpolation-filters:linearRGB;solid-color:#000000;solid-opacity:1;fill:#000000;fill-opacity:1;fill-rule:nonzero;stroke:none;stroke-width:10;stroke-linecap:round;stroke-linejoin:round;stroke-miterlimit:4;stroke-dasharray:none;stroke-dashoffset:23.22000122;stroke-opacity:1;color-rendering:auto;image-rendering:auto;shape-rendering:auto;text-rendering:auto;enable-background:accumulate"
       d="m 129.55584,129.17993 c -3.96,0.07 -8.14463,0.68717 -12.62575,1.82417 l -35.773607,8.92594 a 9.416015,9.416015 0 0 0 -3.655703,1.84255 c -0.06082,0.0478 -0.113358,0.0983 -0.172861,0.14706 a 9.416015,9.416015 0 0 0 -1.346073,1.41594 c -1.544524,1.80005 -2.508929,3.85443 -2.828194,5.34379 -0.549897,2.56521 -0.400272,4.50548 -0.165517,6.57951 0.469586,4.14804 1.654342,8.75598 3.457102,14.58233 a 9.416015,9.416015 0 0 0 0.103001,0.30159 c 4.954927,14.27562 12.163578,22.58815 18.212292,28.34084 4.674829,4.44604 7.94856,7.67228 10.79056,11.86446 -5.846403,10.52381 -8.942607,22.51104 -8.414722,34.34662 0.05291,2.47059 0.160056,4.90602 0.301564,7.30404 a 9.416015,9.416015 0 0 0 0,0.008 c 0.01506,0.26069 0.02994,0.5888 0.05517,0.98196 0.153465,2.39888 0.35444,4.77694 0.588442,7.14222 a 9.416015,9.416015 0 0 0 0,0.004 c 0.03408,0.3435 0.06835,0.69954 0.106578,1.06656 0.16194,1.55631 0.35508,2.9907 0.518564,4.31034 0.187925,1.51435 0.38517,3.07855 0.617873,4.68546 0.200014,1.38302 0.411872,2.73058 0.625218,4.04922 0.23378,1.44337 0.47802,2.89615 0.73923,4.3508 0.24685,1.37614 0.50644,2.77249 0.78336,4.18897 a 9.416015,9.416015 0 0 0 0,0.004 c 0.2677,1.36797 0.54485,2.71231 0.82382,4.03818 0.29107,1.38445 0.59264,2.80565 0.91943,4.25885 0.31631,1.4056 0.64066,2.77568 0.95991,4.11542 0.308,1.29337 0.62441,2.65814 0.98195,4.086 0.33823,1.35006 0.67919,2.62324 0.99301,3.82487 7.09885,27.18813 16.80841,53.29594 23.93487,79.06088 a 9.416015,9.416015 0 0 0 0.0699,0.23904 c 4.29962,14.08294 8.43398,28.34083 12.30947,42.58483 a 9.416015,9.416015 0 0 0 5.37689,6.18599 c 5.52477,21.21478 10.45066,43.40032 14.17779,66.49396 -0.81847,0.56336 -1.64819,1.09075 -2.46042,1.67339 -1.13627,0.40459 -32.95199,11.72328 -66.736701,24.87638 -17.191284,6.69293 -34.588965,13.74275 -48.285355,19.93348 -6.848186,3.09537 -12.752679,5.95987 -17.42523,8.58758 -2.336294,1.31386 -4.360591,2.55279 -6.17497,3.89106 -1.814379,1.3383 -3.511559,2.38106 -5.270238,5.61227 a 9.416015,9.416015 0 0 0 -0.0258,0.0478 9.416015,9.416015 0 0 0 -0.0038,0 c -0.0038,0.008 -0.0075,0.0151 -0.0113,0.022 l 0,0.004 -0.0038,0.0113 a 9.416015,9.416015 0 0 0 -0.02203,0.0405 c -0.02335,0.0437 -0.03973,0.0851 -0.06252,0.1288 -0.0013,0.002 -0.0018,0.006 -0.0038,0.008 -0.303824,0.57988 -0.577407,1.14977 -0.823819,1.71752 -0.26703,0.61527 -0.532121,1.27378 -0.790715,1.97496 l 0,0.008 c -0.0019,0.0151 -0.575205,3.68162 -0.577408,3.69615 -2.45e-4,-0.002 -0.0038,-0.0405 -0.0038,-0.0405 1.9e-5,3.6e-4 0.213421,-2.40939 0.213327,-2.40892 l 0.360409,-1.22839 c -0.508094,1.38067 -0.97576,2.84996 -1.430639,4.43539 -9.5e-5,3.2e-4 -0.347379,2.88558 -0.356756,2.96428 -3.58e-4,-0.004 -0.0038,-0.0514 -0.0038,-0.0514 1.8e-5,3.4e-4 0.158173,-2.06371 0.158173,-2.06324 l 0.198601,-0.83852 c -0.453354,1.58086 -0.901455,3.3015 -1.335019,5.14518 -0.431079,1.83278 -0.847169,3.77699 -1.2467632,5.81455 -0.3960168,2.01936 -0.7737307,4.12689 -1.1290744,6.30736 -3.77e-5,2.3e-4 -0.049712,0.6815 -0.088313,1.19895 0.00183,-0.23795 0.00377,-0.56298 0.00377,-0.5627 l 0.073626,-0.57371 c -0.3559651,2.1884 -0.6858505,4.45044 -0.9893171,6.75972 -0.00143,0.0446 -0.059692,1.98882 -0.062516,1.94922 -0.00377,-0.0401 0.00377,-1.42793 0.00377,-1.42699 l 0.051406,-0.47442 c -0.3055379,2.32893 -0.5783868,4.7032 -0.8164563,7.10177 -0.2381449,2.39871 -0.4451447,4.82912 -0.6031484,7.27092 -0.1572318,2.4321 -0.2697419,4.87192 -0.3309964,7.29668 -0.1530891,6.05919 0.015064,11.99691 0.6730271,17.5503 0.1301164,1.09774 0.2790817,2.19049 0.4560474,3.28424 1.3984773,8.64547 3.6311306,17.19161 11.8791676,22.23208 7.052681,4.30999 30.721008,15.59298 60.929498,6.60526 16.020482,-4.76648 27.647114,-10.69743 35.810384,-17.42892 8.16326,-6.7315 13.1074,-14.51547 13.76218,-22.84626 0.2099,-2.67055 -0.72991,-5.92361 -2.37215,-8.66481 11.57712,-3.21071 22.56212,-4.59084 31.83839,-2.40894 -0.0582,1.74064 -0.11128,3.47081 -0.17286,5.23714 a 9.416015,9.416015 0 0 0 0,0.004 c -0.0861,2.48801 -0.16815,4.94973 -0.26479,7.36656 -0.13087,3.25374 -0.28045,6.50561 -0.43398,9.77181 a 9.416015,9.416015 0 0 0 0,0.004 c -0.0926,1.9828 -0.17926,3.93465 -0.27582,5.84395 -0.19596,3.85403 -0.41021,7.70012 -0.63258,11.53716 a 9.416015,9.416015 0 0 0 0,0.004 c -0.0623,1.08053 -0.12089,2.15164 -0.18397,3.21069 -0.88276,14.75698 -1.93387,29.27858 -3.06724,43.48218 -1.90804,23.9468 -4.01928,46.93169 -5.92856,68.75947 -0.28332,3.22835 -0.52241,6.25799 -0.78705,9.34152 a 9.416015,9.416015 0 0 0 -0.004,0.004 c -0.55961,6.54312 -1.13544,13.18591 -1.63293,19.52892 -0.20525,2.60967 -0.38717,5.12796 -0.57374,7.63504 a 9.416015,9.416015 0 0 0 0,0.004 c -0.13576,1.82927 -0.28817,3.74785 -0.42294,5.6564 -0.32748,4.62964 -0.62799,9.18823 -0.8937,13.65922 -2.02396,34.05607 -2.31942,63.36533 2.85763,87.5896 2.81427,13.16835 7.79242,25.27418 15.67095,35.01599 a 9.416015,9.416015 0 0 0 0.19491,0.31627 l 6.65676,10.1249 a 9.416015,9.416015 0 0 0 5.33276,3.89842 l 27.072,7.56884 a 9.416015,9.416015 0 0 0 6.38828,-0.47812 l 13.35764,-5.99107 a 9.416015,9.416015 0 0 0 0.5296,-0.27216 c 0.26913,-0.11467 0.51978,-0.21573 0.80175,-0.34203 a 9.416015,9.416015 0 0 0 0.0331,-0.0151 c 0.48056,-0.2177 1.01434,-0.46217 1.58879,-0.74291 l 0.0151,-0.008 c 1.17612,-0.571 2.42098,-1.20586 3.71455,-1.95289 11.26052,-6.50282 20.92877,-16.21713 29.92596,-28.01719 18.01691,-23.62969 33.87241,-56.67012 47.7484,-95.82413 1.64649,-4.64593 3.25341,-9.37666 4.8289,-14.16306 0.55718,-1.69266 1.06518,-3.33825 1.55569,-4.86567 1.02326,-3.18648 2.04838,-6.41095 3.05989,-9.72033 l 0,-0.004 c 0.62253,-2.03659 1.21487,-4.06023 1.79843,-6.02785 a 9.416015,9.416015 0 0 0 0.004,0 c 0.87999,-2.96736 1.75666,-5.96369 2.62223,-9.01787 0.60217,-2.12447 1.18918,-4.24685 1.76902,-6.35884 0.83026,-3.02473 1.65053,-6.0706 2.45673,-9.14662 l -0.004,0 c 0.59511,-2.27006 1.18666,-4.55126 1.769,-6.85167 0.75388,-2.97864 1.48581,-5.96518 2.20667,-8.94799 l -0.004,0.004 c 0.55948,-2.31455 1.1291,-4.65773 1.68809,-7.05763 0.73748,-3.16699 1.44448,-6.33667 2.14046,-9.48127 0.48585,-2.19463 0.99383,-4.43212 1.48948,-6.75605 0.33964,-1.59287 0.64829,-3.17847 0.97461,-4.77005 0.24602,11.39424 3.6136,21.57246 8.92594,29.95169 6.98555,11.01846 16.94102,19.08433 27.08672,24.9242 10.14572,5.83989 20.52478,9.48663 29.17202,11.379 4.32363,0.9462 8.18034,1.46807 11.70263,1.49685 1.76115,0.0151 3.43353,-0.0753 5.28864,-0.47443 1.85509,-0.39908 4.14502,-0.88373 6.68617,-3.56743 2.08086,-2.19761 3.07037,-5.41374 3.10771,-7.74536 0.0373,-2.33163 -0.47718,-4.0073 -1.01506,-5.45414 -1.0758,-2.89362 -2.48411,-5.10086 -4.09702,-7.5725 -3.22583,-4.94331 -7.42516,-10.56605 -11.40844,-16.99127 -7.96652,-12.85041 -14.45278,-27.90351 -10.7648,-43.0997 2.62152,-10.80201 8.65423,-28.31595 13.8762,-45.86538 5.22196,-17.54946 9.9474,-34.8071 9.07672,-49.07977 -2.35807,-38.65475 -27.81514,-102.13159 -79.7523,-154.49546 a 9.416015,9.416015 0 0 0 -6.00211,-2.75831 c -1.22093,-0.0887 -2.41378,-0.14857 -3.62628,-0.22804 -5.70237,-26.41125 -13.48253,-52.34378 -22.61455,-77.26611 a 9.416015,9.416015 0 0 0 0.98195,-8.77883 C 292.27331,331.70394 269.90105,285.31868 238.55318,245.30639 l 0.0883,0.13972 c -0.24472,-0.32914 -0.51949,-0.67028 -0.84956,-1.00035 l 0.75394,0.84956 c -1.33551,-1.70451 -2.6852,-3.3899 -4.04553,-5.06061 l -0.004,-0.004 c -0.13444,-0.16533 -0.25234,-0.31064 -0.35306,-0.43398 a 9.416015,9.416015 0 0 0 0,-0.004 c -1.26509,-1.54846 -2.54495,-3.08138 -3.83222,-4.60088 l -0.004,-0.004 c -0.1482,-0.1753 -0.32176,-0.38464 -0.5296,-0.6289 a 9.416015,9.416015 0 0 0 -0.004,-0.004 c -1.23243,-1.4474 -2.47693,-2.88224 -3.7366,-4.31033 l 0.004,0 c -0.24664,-0.27982 -0.5067,-0.57201 -0.77601,-0.87532 -1.15643,-1.30151 -2.31829,-2.58246 -3.47917,-3.84695 l 0.004,0 c -0.32189,-0.35084 -0.69105,-0.75365 -1.1107,-1.20629 a 9.416015,9.416015 0 0 0 0,-0.004 c -1.0491,-1.13084 -2.09118,-2.22352 -3.11138,-3.2916 l 0.004,0 c -0.4478,-0.4691 -0.96706,-1.02832 -1.58144,-1.66235 a 9.416015,9.416015 0 0 0 -0.004,-0.004 c -1.08833,-1.12251 -2.16142,-2.19338 -3.19599,-3.22907 l 0.004,0 c -0.40261,-0.40319 -0.86858,-0.88244 -1.41593,-1.4233 a 9.416015,9.416015 0 0 0 -0.004,0 c -1.55957,-1.5406 -3.14224,-3.07682 -4.75535,-4.60088 a 9.416015,9.416015 0 0 0 -0.27217,-0.24641 c -10.31903,-9.00957 -22.66654,-18.32514 -37.27043,-23.48988 0.29548,-6.965 -0.1111,-14.86465 -3.51228,-24.76237 -2.31023,-7.30102 -5.04638,-14.95862 -10.60666,-21.47078 -5.24369,-6.14137 -13.64242,-10.40181 -23.47148,-10.77585 a 9.416015,9.416015 0 0 0 -1.93084,-0.17644 z"
       id="path4602" />
    <path
       inkscape:connector-curvature="0"
       style="color:#000000;font-style:normal;font-variant:normal;font-weight:normal;font-stretch:normal;font-size:medium;line-height:normal;font-family:sans-serif;text-indent:0;text-align:start;text-decoration:none;text-decoration-line:none;text-decoration-style:solid;text-decoration-color:#000000;letter-spacing:normal;word-spacing:normal;text-transform:none;direction:ltr;block-progression:tb;writing-mode:lr-tb;baseline-shift:baseline;text-anchor:start;white-space:normal;clip-rule:nonzero;display:inline;overflow:visible;visibility:visible;opacity:1;isolation:auto;mix-blend-mode:normal;color-interpolation:sRGB;color-interpolation-filters:linearRGB;solid-color:#000000;solid-opacity:1;fill:#d7a60a;fill-opacity:1;fill-rule:nonzero;stroke:none;stroke-width:10;stroke-linecap:round;stroke-linejoin:miter;stroke-miterlimit:4;stroke-dasharray:none;stroke-dashoffset:23.22000122;stroke-opacity:1;color-rendering:auto;image-rendering:auto;shape-rendering:auto;text-rendering:auto;enable-background:accumulate"
       d="m 298.59687,472.14605 c -51.69282,-0.13765 -98.20466,8.88678 -134.70176,35.63385 l 1.61823,13.70703 c 2.19977,18.66853 3.47548,37.84566 3.47548,57.47976 0,92.26862 -11.86676,179.90876 -15.88057,247.44724 -2.00692,33.76925 -2.16144,62.47286 2.66636,85.06299 4.82783,22.59013 16.16851,40.54825 36.02369,45.95365 10.6077,2.88785 21.68158,0.60688 31.41914,-5.01648 9.73756,-5.62334 18.62156,-14.39201 27.14556,-25.57147 17.04802,-22.35896 32.68802,-54.67704 46.36189,-93.26073 27.34772,-77.16735 46.46119,-179.2835 46.46119,-273.63661 0,-19.08998 -1.46844,-38.44715 -4.1191,-57.78501 l -3.91315,-28.56151 c -12.42132,-0.90259 -24.62785,-1.42094 -36.55696,-1.45271 z"
       id="path4203" />
    <path
       style="opacity:1;fill:#fff1c4;fill-opacity:1;fill-rule:nonzero;stroke:none;stroke-width:3;stroke-linecap:round;stroke-linejoin:miter;stroke-miterlimit:4;stroke-dasharray:none;stroke-dashoffset:23.22000122;stroke-opacity:1"
       d="m 333.77206,559.94523 c 0,186.145 -75.95803,405.70259 -139.50356,388.40289 -63.54553,-17.29969 -15.86497,-183.23656 -15.86497,-369.38156 0,-186.14501 -111.976948,-329.91975 -48.80751,-376.99011 63.16944,-47.07036 204.17604,171.82377 204.17604,357.96878 z"
       id="path4136"
       inkscape:connector-curvature="0"
       sodipodi:nodetypes="szszs" />
    <path
       id="path4268"
       style="fill:none;fill-rule:evenodd;stroke:#ebc959;stroke-width:3;stroke-linecap:butt;stroke-linejoin:miter;stroke-miterlimit:4;stroke-dasharray:none;stroke-opacity:0.39267016"
       d="m 276.90038,812.78842 c 0,0 30.43172,-259.62758 22.89966,-346.24626 C 288.99896,375.9146 191.32215,199.87241 131.12597,204.68328 c -32.342548,49.11456 58.67679,193.20095 69.47788,283.8285 7.53205,86.61868 -14.24495,334.26283 -14.24495,334.26283"
       inkscape:connector-curvature="0"
       sodipodi:nodetypes="ccccc" />
    <path
       inkscape:connector-curvature="0"
       style="color:#000000;font-style:normal;font-variant:normal;font-weight:normal;font-stretch:normal;font-size:medium;line-height:normal;font-family:sans-serif;text-indent:0;text-align:start;text-decoration:none;text-decoration-line:none;text-decoration-style:solid;text-decoration-color:#000000;letter-spacing:normal;word-spacing:normal;text-transform:none;direction:ltr;block-progression:tb;writing-mode:lr-tb;baseline-shift:baseline;text-anchor:start;white-space:normal;clip-rule:nonzero;display:inline;overflow:visible;visibility:visible;opacity:1;isolation:auto;mix-blend-mode:normal;color-interpolation:sRGB;color-interpolation-filters:linearRGB;solid-color:#000000;solid-opacity:1;fill:#ffc300;fill-opacity:1;fill-rule:nonzero;stroke:none;stroke-width:10;stroke-linecap:round;stroke-linejoin:miter;stroke-miterlimit:4;stroke-dasharray:none;stroke-dashoffset:23.22000122;stroke-opacity:1;color-rendering:auto;image-rendering:auto;shape-rendering:auto;text-rendering:auto;enable-background:accumulate"
       d="m 335.15383,473.59876 -13.69966,25.36922 c -26.51986,49.11574 -51.16554,114.01422 -68.08275,166.35625 -4.18736,-19.65276 -9.2862,-42.28152 -16.44695,-65.72529 -6.1243,-20.05048 -13.48612,-39.52379 -22.86099,-55.38344 -9.37485,-15.85965 -20.97296,-28.78875 -36.8144,-32.93805 l -13.35397,-3.49755 1.61823,13.70703 c 2.19977,18.66853 3.47548,37.84566 3.47548,57.47976 0,92.26862 -11.86676,179.90876 -15.88057,247.44724 -2.00692,33.76925 -2.16144,62.47286 2.66636,85.06299 4.82783,22.59013 16.16851,40.54825 36.02369,45.95365 10.6077,2.88785 21.68158,0.60688 31.41914,-5.01648 9.73756,-5.62334 18.62156,-14.39201 27.14556,-25.57147 17.04802,-22.35896 32.68802,-54.67704 46.36189,-93.26073 27.34772,-77.16735 46.46119,-179.2835 46.46119,-273.63661 0,-19.08998 -1.46844,-38.44715 -4.1191,-57.78501 l -3.91315,-28.56151 z"
       id="path4183" />
    <path
       inkscape:connector-curvature="0"
       style="opacity:0.29500002;fill:url(#linearGradient4264);fill-opacity:1;fill-rule:nonzero;stroke:none;stroke-width:10;stroke-linecap:round;stroke-linejoin:miter;stroke-miterlimit:4;stroke-dasharray:none;stroke-dashoffset:23.22000122;stroke-opacity:0"
       d="m 163.89511,507.7799 1.61823,13.70703 c 2.19977,18.66853 3.47548,37.84566 3.47548,57.47976 0,42.54476 -2.53409,84.01008 -5.64905,123.04691 -3.63832,45.66288 -8.06802,87.9958 -10.23152,124.40033 -2.00692,33.76925 -2.16144,62.47286 2.66636,85.06299 4.82783,22.59013 16.16851,40.54825 36.02369,45.95365 0.52717,0.14349 1.05589,0.26428 1.58513,0.38248 l 48.84436,-238.14619 4.46849,-21.79442 6.67514,-32.54821 c 0,0 -9.2862,-42.28152 -16.44695,-65.72529 -6.1243,-20.05048 -13.48612,-39.52379 -22.86099,-55.38344 -9.37485,-15.85965 -20.97296,-28.78875 -36.8144,-32.93805 l -13.35397,-3.49755 z m 152.40651,260.59526 c -0.17946,0.70875 -0.36706,1.40808 -0.54798,2.1147 0.18077,-0.70726 0.36862,-1.40529 0.54798,-2.1147 z m -4.16691,15.77759 c -0.57048,2.07742 -1.14235,4.1526 -1.72486,6.20808 0.58187,-2.05607 1.15508,-4.13006 1.72486,-6.20808 z m -2.97531,10.61403 c -1.04189,3.59524 -2.10389,7.15188 -3.18126,10.67287 1.07705,-3.52363 2.13991,-7.07477 3.18126,-10.67287 z m -4.11541,13.71437 c -1.16777,3.75762 -2.35397,7.47207 -3.56008,11.13628 1.20564,-3.665 2.39312,-7.37765 3.56008,-11.13628 z m -4.35816,13.52683 c -1.30254,3.90797 -2.61729,7.7825 -3.96094,11.57391 1.34406,-3.79254 2.65855,-7.66442 3.96094,-11.57391 z m -80.60184,132.05008 c -0.45142,0.21909 -0.90481,0.43202 -1.36078,0.63625 0.45593,-0.20653 0.90935,-0.41515 1.36078,-0.63625 z m -2.98635,1.324 c -1.35893,0.55044 -2.73114,1.05078 -4.11909,1.47111 1.38853,-0.42095 2.76063,-0.91428 4.11909,-1.47111 z m -8.4846,2.57811 c -0.70059,0.13445 -1.40317,0.25223 -2.10736,0.34938 0.70435,-0.097 1.40669,-0.21506 2.10736,-0.34938 z"
       id="rect4241" />
    <path
       style="fill:#ffd653;fill-opacity:1;fill-rule:evenodd;stroke:none;stroke-width:1px;stroke-linecap:butt;stroke-linejoin:miter;stroke-opacity:1"
       d="m 163.89511,507.7799 c 0,0 -133.850801,47.62568 -139.966889,58.98412 -6.116088,11.35846 -15.7270897,75.14055 0,84.75155 15.727089,9.611 94.530579,-65.06437 144.685879,-43.45378 50.15532,21.6106 84.75732,57.26244 84.75732,57.26244 C 236.80239,573.04024 210.6583,509.48141 163.89511,507.7799 Z"
       id="path4208"
       inkscape:connector-curvature="0"
       sodipodi:nodetypes="cssscc" />
    <path
       style="fill:#7a5d00;fill-opacity:1;fill-rule:evenodd;stroke:none;stroke-width:1px;stroke-linecap:butt;stroke-linejoin:miter;stroke-opacity:1"
       d="m 170.30021,943.60454 6.66014,10.12696 27.07182,7.56893 13.35504,-5.99373 c -17.66582,3.7124 -33.06491,-0.91392 -47.087,-11.70216 z"
       id="path4215"
       inkscape:connector-curvature="0"
       sodipodi:nodetypes="ccccc" />
    <path
       inkscape:connector-curvature="0"
       style="opacity:0.29500002;fill:url(#linearGradient4236);fill-opacity:1;fill-rule:evenodd;stroke:none;stroke-width:1px;stroke-linecap:butt;stroke-linejoin:miter;stroke-opacity:1"
       d="m 314.20897,512.90669 c -0.0761,0.15064 -0.15196,0.30149 -0.22802,0.45238 -17.86275,39.07276 -44.30717,103.81794 -58.03142,144.20141 -0.91844,2.70252 -1.78011,5.29474 -2.57811,7.76375 l -59.98799,292.48882 c 4.33921,0.96919 8.74027,1.09443 13.08179,0.50019 0.001,-1.7e-4 0.002,1.5e-4 0.004,0 0.001,-1.7e-4 0.002,1.5e-4 0.004,0 0.71521,-0.0981 1.42896,-0.21661 2.14046,-0.35307 0.008,-0.001 0.0151,-0.002 0.022,-0.004 0.0113,-0.002 0.022,-0.006 0.0331,-0.008 0.70883,-0.13689 1.41434,-0.29311 2.11839,-0.46708 0.68685,-0.19474 1.33066,-0.37626 2.01541,-0.57004 3.57843,-1.06854 7.07833,-2.57077 10.41543,-4.49792 9.73756,-5.62334 18.62156,-14.39202 27.14556,-25.57147 17.04802,-22.35896 32.68802,-54.67705 46.36189,-93.26073 24.14343,-68.1258 41.85915,-155.69459 45.68149,-240.20207 -8.09552,-24.88573 -17.45052,-51.63154 -28.19742,-80.47313 z"
       id="path4217" />
    <path
       style="opacity:1;fill:#ffd653;fill-opacity:1;fill-rule:evenodd;stroke:none;stroke-width:1px;stroke-linecap:butt;stroke-linejoin:miter;stroke-opacity:1"
       d="m 335.15383,473.59876 c 50.28177,50.69488 74.91102,113.49824 77.04242,148.4376 1.38552,22.71201 -17.03031,68.76197 -22.70613,92.14927 -9.19421,37.88475 32.1263,70.65894 26.48961,76.61185 -5.63669,5.95291 -80.53603,-11.70627 -72.01527,-66.90059 5.30334,-34.35316 17.55371,-40.34794 15.34455,-73.56841 -2.39338,-35.99085 -17.69712,-125.55023 -105.93759,14.99575 7.88983,-31.29422 52.28975,-147.33954 81.78241,-191.72547 z"
       id="path4199"
       inkscape:connector-curvature="0"
       sodipodi:nodetypes="csszsscc" />
    <g
       id="g4419"
       inkscape:transform-center-x="3.3587485"
       inkscape:transform-center-y="-5.6514751"
       transform="matrix(1.8466665,-0.36819453,0.36819453,1.8466665,-680.17729,-132.56623)">
      <g
         id="g4415">
        <path
           style="opacity:1;fill:#ffffff;fill-opacity:1;fill-rule:nonzero;stroke:#f2c121;stroke-width:0.53106332;stroke-linecap:round;stroke-linejoin:miter;stroke-miterlimit:4;stroke-dasharray:none;stroke-dashoffset:23.22000122;stroke-opacity:1"
           d="m 392.61528,336.92073 c -0.17476,-0.002 -0.65665,-0.0988 -0.85725,-0.0823 l -0.96311,1.03466 c -0.98982,1.04297 -1.54265,2.42539 -1.54492,3.86328 0,3.1066 2.5184,5.625 5.625,5.625 2.49133,-0.002 4.68474,-1.64201 5.39062,-4.03125 0.25491,-0.87735 -0.53315,-1.26364 -1.11833,-1.73044 -1.41716,-1.13048 -2.33134,-2.48624 -3.21244,-3.31956 -0.77096,-0.72916 -2.09628,-1.34749 -3.31957,-1.35936 z"
           id="path4380"
           inkscape:connector-curvature="0"
           sodipodi:nodetypes="ccccccssc" />
        <circle
           r="1.875"
           cy="344.04971"
           cx="395.375"
           id="circle4382"
           style="opacity:1;fill:#f2c121;fill-opacity:1;fill-rule:nonzero;stroke:none;stroke-width:3;stroke-linecap:round;stroke-linejoin:miter;stroke-miterlimit:4;stroke-dasharray:none;stroke-dashoffset:23.22000122;stroke-opacity:1" />
      </g>
      <g
         id="g4411">
        <path
           style="color:#000000;font-style:normal;font-variant:normal;font-weight:normal;font-stretch:normal;font-size:medium;line-height:normal;font-family:sans-serif;text-indent:0;text-align:start;text-decoration:none;text-decoration-line:none;text-decoration-style:solid;text-decoration-color:#000000;letter-spacing:normal;word-spacing:normal;text-transform:none;direction:ltr;block-progression:tb;writing-mode:lr-tb;baseline-shift:baseline;text-anchor:start;white-space:normal;clip-rule:nonzero;display:inline;overflow:visible;visibility:visible;opacity:1;isolation:auto;mix-blend-mode:normal;color-interpolation:sRGB;color-interpolation-filters:linearRGB;solid-color:#000000;solid-opacity:1;fill:#ffe590;fill-opacity:1;fill-rule:evenodd;stroke:none;stroke-width:2.5;stroke-linecap:butt;stroke-linejoin:miter;stroke-miterlimit:4;stroke-dasharray:none;stroke-dashoffset:0;stroke-opacity:1;color-rendering:auto;image-rendering:auto;shape-rendering:auto;text-rendering:auto;enable-background:accumulate"
           d="m 402.44141,325.49414 -24.8418,7.43945 0.24023,1.125 c 0,0 0.20457,0.91369 0.84571,2.1543 0.64113,1.24061 1.73996,2.9014 3.57031,4.67188 l 0.68945,0.66796 0.82227,-0.49414 c 3.89316,-2.33387 6.43817,-3.22531 8.04297,-3.35351 1.6048,-0.1282 2.31616,0.32293 3.19726,1.15625 0.8811,0.83332 1.76058,2.1371 3.17774,3.26758 1.41715,1.13047 3.42615,1.97761 6.24218,1.85742 0.61692,-0.0263 1.14422,-0.36063 1.47657,-0.7168 0.33235,-0.35617 0.54125,-0.74739 0.71679,-1.1582 0.3511,-0.82162 0.55531,-1.75278 0.70703,-2.66797 0.30348,-1.83039 0.35938,-3.60352 0.35938,-3.60352 l 0.01,-0.32812 -5.25586,-10.01758 z"
           id="path4399"
           inkscape:connector-curvature="0" />
        <path
           style="color:#000000;font-style:normal;font-variant:normal;font-weight:normal;font-stretch:normal;font-size:medium;line-height:normal;font-family:sans-serif;text-indent:0;text-align:start;text-decoration:none;text-decoration-line:none;text-decoration-style:solid;text-decoration-color:#000000;letter-spacing:normal;word-spacing:normal;text-transform:none;direction:ltr;block-progression:tb;writing-mode:lr-tb;baseline-shift:baseline;text-anchor:start;white-space:normal;clip-rule:nonzero;display:inline;overflow:visible;visibility:visible;opacity:1;isolation:auto;mix-blend-mode:normal;color-interpolation:sRGB;color-interpolation-filters:linearRGB;solid-color:#000000;solid-opacity:1;fill:#4c3f15;fill-opacity:1;fill-rule:evenodd;stroke:none;stroke-width:2.5;stroke-linecap:round;stroke-linejoin:miter;stroke-miterlimit:4;stroke-dasharray:none;stroke-dashoffset:0;stroke-opacity:1;color-rendering:auto;image-rendering:auto;shape-rendering:auto;text-rendering:auto;enable-background:accumulate"
           d="m 391.54883,334.93164 c -2.26828,0.1812 -4.63281,1.70168 -8.41016,4.75 -0.67367,0.54366 -1.93881,1.74771 -1.43892,1.91062 0.54389,0.17725 1.32809,-0.084 2.06783,-0.53367 3.8788,-2.35766 6.43817,-3.22531 8.04297,-3.35351 1.6048,-0.1282 2.31616,0.32293 3.19726,1.15625 0.8811,0.83332 1.76058,2.1371 3.17774,3.26758 1.41715,1.13047 3.42613,1.97715 6.24218,1.85742 0.8329,-0.0354 2.14517,-0.11622 2.66538,-0.77053 0.27296,-0.34332 -2.02494,-0.7114 -2.83334,-0.91502 -2.09023,-0.5265 -3.4693,-1.29189 -4.51368,-2.125 -1.04438,-0.83311 -1.65328,-2.29643 -2.81641,-3.39648 -1.16312,-1.10005 -3.11257,-2.02886 -5.38085,-1.84766 z"
           id="path4407"
           inkscape:connector-curvature="0"
           sodipodi:nodetypes="sssssssssssss" />
      </g>
    </g>
    <g
       transform="matrix(-1.7573212,0.67643656,0.67643656,1.7573212,699.31797,-535.85569)"
       inkscape:transform-center-y="-4.1200283"
       inkscape:transform-center-x="0.2317283"
       id="g4427">
      <g
         id="g4429"
         style="stroke:none;stroke-width:1;stroke-miterlimit:4;stroke-dasharray:none;stroke-opacity:1">
        <path
           inkscape:connector-curvature="0"
           id="path4431"
           d="m 392.22378,337.17278 c -0.17476,-0.002 -0.5745,-0.0552 -0.7751,-0.0387 -0.30065,0.024 -0.28443,0.65693 -0.65376,0.739 -0.98982,1.04297 -1.54265,2.42539 -1.54492,3.86328 0,3.1066 2.5184,5.625 5.625,5.625 2.49133,-0.002 4.68474,-1.64201 5.39062,-4.03125 -0.26926,-0.90599 0.047,-1.28053 -0.53816,-1.74733 -1.41716,-1.13048 -3.42627,-2.66241 -4.30737,-3.49573 -0.77096,-0.72916 -1.97302,-0.90238 -3.19631,-0.91425 z"
           style="opacity:1;fill:#ffffff;fill-opacity:1;fill-rule:nonzero;stroke:#f2c121;stroke-width:0.53106332;stroke-linecap:round;stroke-linejoin:miter;stroke-miterlimit:4;stroke-dasharray:none;stroke-dashoffset:23.22000122;stroke-opacity:1"
           sodipodi:nodetypes="ccccccssc" />
        <circle
           style="opacity:1;fill:#f2c121;fill-opacity:1;fill-rule:nonzero;stroke:none;stroke-width:1;stroke-linecap:round;stroke-linejoin:miter;stroke-miterlimit:4;stroke-dasharray:none;stroke-dashoffset:23.22000122;stroke-opacity:1"
           id="circle4433"
           cx="395.21936"
           cy="343.39929"
           r="1.875" />
      </g>
      <g
         id="g4435">
        <path
           inkscape:connector-curvature="0"
           id="path4437"
           d="m 402.44141,325.49414 -24.8418,7.43945 0.24023,1.125 c 0,0 0.20457,0.91369 0.84571,2.1543 0.64113,1.24061 2.16596,1.83332 3.99631,3.6038 l 0.98768,0.0509 3.44056,-0.5644 c 3.89316,-2.33387 3.09565,-1.4699 4.70045,-1.5981 1.6048,-0.1282 2.31616,0.32293 3.19726,1.15625 0.8811,0.83332 1.76058,2.1371 3.17774,3.26758 1.41715,1.13047 3.42615,1.97761 6.24218,1.85742 0.61692,-0.0263 1.14422,-0.36063 1.47657,-0.7168 0.33235,-0.35617 0.54125,-0.74739 0.71679,-1.1582 0.3511,-0.82162 0.55531,-1.75278 0.70703,-2.66797 0.30348,-1.83039 0.35938,-3.60352 0.35938,-3.60352 l 0.01,-0.32812 -5.25586,-10.01758 z"
           style="color:#000000;font-style:normal;font-variant:normal;font-weight:normal;font-stretch:normal;font-size:medium;line-height:normal;font-family:sans-serif;text-indent:0;text-align:start;text-decoration:none;text-decoration-line:none;text-decoration-style:solid;text-decoration-color:#000000;letter-spacing:normal;word-spacing:normal;text-transform:none;direction:ltr;block-progression:tb;writing-mode:lr-tb;baseline-shift:baseline;text-anchor:start;white-space:normal;clip-rule:nonzero;display:inline;overflow:visible;visibility:visible;opacity:1;isolation:auto;mix-blend-mode:normal;color-interpolation:sRGB;color-interpolation-filters:linearRGB;solid-color:#000000;solid-opacity:1;fill:#ffe590;fill-opacity:1;fill-rule:evenodd;stroke:none;stroke-width:2.5;stroke-linecap:butt;stroke-linejoin:miter;stroke-miterlimit:4;stroke-dasharray:none;stroke-dashoffset:0;stroke-opacity:1;color-rendering:auto;image-rendering:auto;shape-rendering:auto;text-rendering:auto;enable-background:accumulate"
           sodipodi:nodetypes="cccscccssscscccccc" />
        <path
           sodipodi:nodetypes="sssssssssssss"
           inkscape:connector-curvature="0"
           id="path4439"
           d="m 391.54883,334.93164 c -2.26828,0.1812 -3.48419,1.29303 -5.45812,2.6761 -0.70896,0.49675 -3.05826,2.14513 -2.55837,2.30804 0.54389,0.17725 3.24449,-0.34612 3.9636,-0.82809 1.62207,-1.08717 2.70981,-1.25441 4.31461,-1.38261 1.6048,-0.1282 2.31616,0.32293 3.19726,1.15625 0.8811,0.83332 1.76058,2.1371 3.17774,3.26758 1.41715,1.13047 3.42613,1.97715 6.24218,1.85742 0.8329,-0.0354 2.14517,-0.11622 2.66538,-0.77053 0.27296,-0.34332 -2.02494,-0.7114 -2.83334,-0.91502 -2.09023,-0.5265 -3.4693,-1.29189 -4.51368,-2.125 -1.04438,-0.83311 -1.65328,-2.29643 -2.81641,-3.39648 -1.16312,-1.10005 -3.11257,-2.02886 -5.38085,-1.84766 z"
           style="color:#000000;font-style:normal;font-variant:normal;font-weight:normal;font-stretch:normal;font-size:medium;line-height:normal;font-family:sans-serif;text-indent:0;text-align:start;text-decoration:none;text-decoration-line:none;text-decoration-style:solid;text-decoration-color:#000000;letter-spacing:normal;word-spacing:normal;text-transform:none;direction:ltr;block-progression:tb;writing-mode:lr-tb;baseline-shift:baseline;text-anchor:start;white-space:normal;clip-rule:nonzero;display:inline;overflow:visible;visibility:visible;opacity:1;isolation:auto;mix-blend-mode:normal;color-interpolation:sRGB;color-interpolation-filters:linearRGB;solid-color:#000000;solid-opacity:1;fill:#4c3f15;fill-opacity:1;fill-rule:evenodd;stroke:none;stroke-width:2.5;stroke-linecap:round;stroke-linejoin:miter;stroke-miterlimit:4;stroke-dasharray:none;stroke-dashoffset:0;stroke-opacity:1;color-rendering:auto;image-rendering:auto;shape-rendering:auto;text-rendering:auto;enable-background:accumulate" />
      </g>
    </g>
    <path
       style="fill:url(#radialGradient4324);fill-opacity:1;fill-rule:evenodd;stroke:none;stroke-width:1px;stroke-linecap:butt;stroke-linejoin:miter;stroke-opacity:1"
       d="m 147.84537,191.76076 c -26.01916,0.97368 -42.38647,28.51605 -41.30496,52.53684 0.94086,46.8766 20.28658,90.78065 32.61807,135.36375 4.32562,14.1681 8.48738,28.51926 12.39038,42.86433 18.04672,2.19623 36.0935,4.39194 54.14035,6.58686 l -19.00666,-62.56978 c -11.31005,3.65706 -26.84319,4.01758 -45.42773,2.54501 8.7927,-14.4885 21.04687,-24.39688 34.15538,-29.13525 7.86513,-2.84305 16.0402,-3.82404 23.95694,-2.81715 l 5.17829,37.29986 10.90825,0.7282 8.03958,-7.41804 -16.87725,-33.16974 c 5.5296,-5.75428 12.5086,-10.12103 20.41527,-12.84643 13.17775,-4.54232 28.93572,-4.52413 44.87606,1.23205 -13.54029,12.8146 -25.85507,22.28405 -36.95416,26.53874 l 25.89512,64.09972 c 13.65941,-10.73269 27.31848,-21.46582 40.97764,-32.19881 C 278.06715,321.39304 247.60118,261.77433 200.15418,216.94608 185.5987,204.23767 168.05931,191.5058 147.84537,191.76076 Z"
       id="path4281"
       inkscape:connector-curvature="0"
       sodipodi:nodetypes="cccccccscccccscccccc" />
    <path
       style="color:#000000;font-style:normal;font-variant:normal;font-weight:normal;font-stretch:normal;font-size:medium;line-height:normal;font-family:sans-serif;text-indent:0;text-align:start;text-decoration:none;text-decoration-line:none;text-decoration-style:solid;text-decoration-color:#000000;letter-spacing:normal;word-spacing:normal;text-transform:none;direction:ltr;block-progression:tb;writing-mode:lr-tb;baseline-shift:baseline;text-anchor:start;white-space:normal;clip-rule:nonzero;display:inline;overflow:visible;visibility:visible;opacity:1;isolation:auto;mix-blend-mode:normal;color-interpolation:sRGB;color-interpolation-filters:linearRGB;solid-color:#000000;solid-opacity:1;fill:url(#radialGradient4359);fill-opacity:1;fill-rule:evenodd;stroke:none;stroke-width:3.4000001;stroke-linecap:butt;stroke-linejoin:miter;stroke-miterlimit:4;stroke-dasharray:none;stroke-dashoffset:0;stroke-opacity:1;color-rendering:auto;image-rendering:auto;shape-rendering:auto;text-rendering:auto;enable-background:accumulate"
       d="m 205.05078,251.08984 c -10.68802,0.39486 -23.17157,2.57103 -35.75781,8.51954 -16.55196,7.82279 -24.914,13.78982 -31.70313,20.36718 -6.78912,6.57736 -11.75034,12.28586 -21.68742,23.45895 l 0.51689,0.84456 c 11.24606,-10.2683 17.00588,-15.53394 23.53577,-21.86015 6.52988,-6.3262 14.43881,-12.01081 30.78906,-19.73828 32.24114,-15.23781 63.49609,-7.11328 63.49609,-7.11328 l -0.55078,-1.34961 c 0,0 -10.8253,-3.787 -28.63867,-3.12891 z"
       id="path4993"
       inkscape:connector-curvature="0"
       sodipodi:nodetypes="sssccssccs" />
    <path
       inkscape:connector-curvature="0"
       style="opacity:1;fill:#ff4a4a;fill-opacity:1;fill-rule:nonzero;stroke:#ff7b7b;stroke-width:0.5;stroke-linecap:round;stroke-linejoin:miter;stroke-miterlimit:4;stroke-dasharray:none;stroke-dashoffset:23.22000122;stroke-opacity:1"
       d="m 129.72135,138.595 c -3.09592,0.0548 -6.56871,0.54267 -10.47427,1.53362 l -35.810379,8.93698 c 11.448146,8.20983 19.571739,19.74324 27.987779,30.98516 9.25104,27.25368 25.38403,26.55787 30.96308,43.93455 l 16.70807,-5.71892 c -6.23931,-17.15069 6.93328,-26.48554 -2.45673,-53.69166 -4.40419,-13.94195 -10.19967,-26.27553 -26.91755,-25.97973 z"
       id="rect4761" />
    <path
       style="opacity:1;fill:#ff4a4a;fill-opacity:1;fill-rule:nonzero;stroke:#ff7373;stroke-width:0.5;stroke-linecap:round;stroke-linejoin:miter;stroke-miterlimit:4;stroke-dasharray:none;stroke-dashoffset:23.22000122;stroke-opacity:1"
       d="m 85.441076,167.05722 c 8.911047,25.67361 22.853224,25.62152 31.154324,42.94155 9.72137,-1.70705 17.25282,8.99546 25.79216,13.98654 -5.57905,-17.37668 -21.71204,-16.68087 -30.96308,-43.93455 -26.812815,-37.7173 -34.312279,-39.91184 -25.983404,-12.99354 z"
       id="rect4770"
       inkscape:connector-curvature="0"
       sodipodi:nodetypes="ccccc" />
    <g
       id="g4633"
       transform="matrix(1.8830147,0,0,1.8830147,-564.96397,-285.12008)">
      <path
         inkscape:connector-curvature="0"
         id="path4630"
         d="m 322.23828,197.13281 a 5.0005,5.0005 0 0 0 -4.91601,4.49414 l -5.02344,49.65821 a 5.0005,5.0005 0 0 0 1.93359,4.47265 l 6.52539,4.99805 c 3.34231,35.82893 4.77184,57.83726 5.56836,86.8457 a 5.0005,5.0005 0 0 0 0.0156,0.58594 l 0.0234,0.24219 31.34375,344.71484 a 5.0005,5.0005 0 0 0 5.43164,4.52539 l 8.36133,-0.76172 a 5.0005,5.0005 0 0 0 4.52539,-5.43164 l -31.34375,-344.7207 a 5.0005,5.0005 0 0 0 -0.002,-0.0176 l -0.0215,-0.23437 a 5.0005,5.0005 0 0 0 -0.0859,-0.56055 c -4.39652,-28.8149 -7.58842,-50.46077 -10.2207,-86.39063 l 5.54882,-6.1289 a 5.0005,5.0005 0 0 0 1.09571,-4.74805 l -13.89844,-47.9375 a 5.0005,5.0005 0 0 0 -4.86133,-3.60547 z"
         style="color:#000000;font-style:normal;font-variant:normal;font-weight:normal;font-stretch:normal;font-size:medium;line-height:normal;font-family:sans-serif;text-indent:0;text-align:start;text-decoration:none;text-decoration-line:none;text-decoration-style:solid;text-decoration-color:#000000;letter-spacing:normal;word-spacing:normal;text-transform:none;direction:ltr;block-progression:tb;writing-mode:lr-tb;baseline-shift:baseline;text-anchor:start;white-space:normal;clip-rule:nonzero;display:inline;overflow:visible;visibility:visible;opacity:1;isolation:auto;mix-blend-mode:normal;color-interpolation:sRGB;color-interpolation-filters:linearRGB;solid-color:#000000;solid-opacity:1;fill:#000000;fill-opacity:1;fill-rule:nonzero;stroke:none;stroke-width:10;stroke-linecap:butt;stroke-linejoin:round;stroke-miterlimit:4;stroke-dasharray:none;stroke-dashoffset:0;stroke-opacity:1;color-rendering:auto;image-rendering:auto;shape-rendering:auto;text-rendering:auto;enable-background:accumulate" />
      <g
         transform="matrix(0.9958915,-0.09055447,0.09055447,0.9958915,52.07991,20.49159)"
         id="g64241">
        <rect
           style="opacity:1;fill:#6f5707;fill-opacity:1;stroke:none;stroke-width:1.08951116;stroke-linejoin:round;stroke-miterlimit:4;stroke-dasharray:none;stroke-opacity:1"
           id="rect64226"
           width="8.3957701"
           height="346.39282"
           x="248.46106"
           y="351.17163" />
        <path
           style="opacity:1;fill:#686868;fill-opacity:1;stroke:none;stroke-width:1.08951116;stroke-linejoin:round;stroke-miterlimit:4;stroke-dasharray:none;stroke-opacity:1"
           d="m 250.83606,261.52881 3.64577,0 c -0.72968,37.72497 0.55207,59.92855 2.375,89.89282 l -8.39577,0 c 1.90692,-29.96427 2.49214,-52.16785 2.375,-89.89282 z"
           id="rect64228"
           inkscape:connector-curvature="0"
           sodipodi:nodetypes="ccccc" />
        <path
           style="fill:#808080;fill-opacity:1;fill-rule:evenodd;stroke:none;stroke-width:1px;stroke-linecap:butt;stroke-linejoin:miter;stroke-opacity:1"
           d="m 252.65894,205.3622 0,57.75 9.50001,-8.75 z"
           id="path64231"
           inkscape:connector-curvature="0" />
        <path
           inkscape:connector-curvature="0"
           id="path64233"
           d="m 252.65894,205.3622 0,57.75 -9.5,-8.75 z"
           style="fill:#686868;fill-opacity:1;fill-rule:evenodd;stroke:none;stroke-width:1px;stroke-linecap:butt;stroke-linejoin:miter;stroke-opacity:1" />
      </g>
    </g>
    <path
       style="opacity:1;fill:#ffc300;fill-opacity:1;fill-rule:nonzero;stroke:none;stroke-width:10;stroke-linecap:round;stroke-linejoin:miter;stroke-miterlimit:4;stroke-dasharray:none;stroke-dashoffset:23.22000122;stroke-opacity:1"
       d="m 23.928221,566.76153 c -6.116088,11.35846 -15.7270708,75.14302 0,84.75404 4.838877,2.95711 26.666105,13.54984 53.333134,5.61577 30.292305,-9.01267 42.094495,-22.10851 42.871105,-31.98918 0.7764,-9.8781 -16.95783,-2.69083 -45.798911,-17.57722 C 45.492486,592.67852 25.640295,563.58199 23.928221,566.76153 Z"
       id="rect4210"
       inkscape:connector-curvature="0"
       sodipodi:nodetypes="ssssss" />
    <g
       id="g4940"
       transform="matrix(0.9691842,0.24633713,-0.24633713,0.9691842,-34.481671,-125.33506)">
      <path
         inkscape:connector-curvature="0"
         id="path4666"
         d="m 687.45719,505.26854 0.0261,14.18806 0.0627,34.52886 c -3.54634,1.27106 -7.26352,2.52512 -11.49297,3.64945 -20.09234,5.34119 -47.21881,8.71838 -76.6589,8.78317 l -0.0155,-5.6e-4 c -4.39853,10e-4 -8.7912,-0.0727 -13.15736,-0.2192 l -9.75112,-0.3265 0.59015,310.66791 9.06582,0.32174 c 4.58477,0.16153 9.19678,0.24293 13.81412,0.24882 l 0.0155,5.5e-4 0.0155,5.6e-4 c 33.77777,-0.0639 64.33513,-4.13306 87.21756,-11.00832 11.44122,-3.43763 20.97699,-7.50855 28.33791,-12.72255 7.36092,-5.21402 13.35991,-12.41942 13.34239,-21.60874 l -0.21416,-113.31547 -0.005,-2.55198 7.5e-4,-0.29719 -0.0533,-27.01858 -2e-5,-0.17672 -0.27955,-148.54687 -2.6e-4,-0.0375 c -0.0682,-6.92648 -3.76678,-12.9756 -8.68636,-17.55505 -4.91962,-4.57943 -11.28961,-8.24311 -19.09248,-11.51593 l -13.08142,-5.48793 z"
         style="color:#000000;font-style:normal;font-variant:normal;font-weight:normal;font-stretch:normal;font-size:medium;line-height:normal;font-family:sans-serif;text-indent:0;text-align:start;text-decoration:none;text-decoration-line:none;text-decoration-style:solid;text-decoration-color:#000000;letter-spacing:normal;word-spacing:normal;text-transform:none;direction:ltr;block-progression:tb;writing-mode:lr-tb;baseline-shift:baseline;text-anchor:start;white-space:normal;clip-rule:nonzero;display:inline;overflow:visible;visibility:visible;opacity:1;isolation:auto;mix-blend-mode:normal;color-interpolation:sRGB;color-interpolation-filters:linearRGB;solid-color:#000000;solid-opacity:1;fill:#000000;fill-opacity:1;fill-rule:nonzero;stroke:none;stroke-width:10;stroke-linecap:round;stroke-linejoin:miter;stroke-miterlimit:4;stroke-dasharray:none;stroke-dashoffset:23.22000122;stroke-opacity:1;color-rendering:auto;image-rendering:auto;shape-rendering:auto;text-rendering:auto;enable-background:accumulate" />
      <path
         inkscape:connector-curvature="0"
         id="path4201"
         d="m 696.89686,519.43586 0.0775,41.02537 a 35.679836,119.57143 89.891763 0 0 21.92853,-20.53764 35.679836,119.57143 89.891763 0 0 -22.00603,-20.48773 z"
         style="opacity:1;fill:#8a0000;fill-opacity:1;fill-rule:nonzero;stroke:none;stroke-width:0.40000001;stroke-linecap:round;stroke-linejoin:miter;stroke-miterlimit:4;stroke-dasharray:none;stroke-dashoffset:23.22000122;stroke-opacity:1" />
      <path
         inkscape:connector-curvature="0"
         id="ellipse4207"
         d="m 718.90289,539.92359 a 35.679836,119.57143 89.891763 0 1 -119.50382,35.90747 35.679836,119.57143 89.891763 0 1 -13.49416,-0.22092 l 0.55132,291.84102 a 35.679836,119.57143 89.891763 0 0 13.49421,0.24666 35.679836,119.57143 89.891763 0 0 119.50381,-35.90748 l -0.55136,-291.86675 z"
         style="opacity:1;fill:url(#linearGradient4231);fill-opacity:1;fill-rule:nonzero;stroke:none;stroke-width:0.40000001;stroke-linecap:round;stroke-linejoin:miter;stroke-miterlimit:4;stroke-dasharray:none;stroke-dashoffset:23.22000122;stroke-opacity:1" />
      <path
         inkscape:connector-curvature="0"
         style="opacity:1;fill:url(#linearGradient5644);fill-opacity:1;fill-rule:nonzero;stroke:none;stroke-width:0.40000001;stroke-linecap:round;stroke-linejoin:miter;stroke-miterlimit:4;stroke-dasharray:none;stroke-dashoffset:23.22000122;stroke-opacity:1"
         d="m 718.90289,539.92359 a 35.679836,119.57143 89.891763 0 1 -119.50382,35.90747 35.679836,119.57143 89.891763 0 1 -13.49416,-0.22092 l 0.55132,291.84102 a 35.679836,119.57143 89.891763 0 0 13.49421,0.24666 35.679836,119.57143 89.891763 0 0 119.50381,-35.90748 l -0.55136,-291.86675 z"
         id="path5634" />
      <path
         id="rect4870"
         transform="translate(0,62.362175)"
         d="m 625.59375,512.50586 a 35.679836,119.57143 89.891763 0 1 -5.19336,0.35742 l 0,47.82227 a 2.6002599,2.6002599 0 0 0 2.75977,2.5957 c 28.07357,-1.74001 52.23018,-6.28837 69.58984,-12.64648 8.67983,-3.17906 15.67,-6.7957 20.6543,-10.90235 2.31668,-1.90877 4.22086,-3.96814 5.60351,-6.15234 l -0.0195,-10.67383 a 2.6002599,2.6002599 0 0 0 -2.68555,2.65039 c -0.004,3.22115 -1.91967,6.63128 -6.20507,10.16211 -4.28541,3.53084 -10.81304,6.98531 -19.13477,10.0332 -16.06897,5.88539 -38.88739,10.24662 -65.36328,12.08985 l 0,-45.15625 a 2.6002599,2.6002599 0 0 0 -0.006,-0.17969 z m 74.17383,76.08594 c -10.97779,0 -21.26625,6.40441 -29.11524,16.3125 -7.84899,9.9081 -13.38463,23.42165 -14.92187,38.34765 -0.29006,2.81638 -0.42672,5.58388 -0.41992,8.29102 -16.62569,2.68589 -35.67251,4.24477 -55.91211,4.2832 -4.42009,0.002 -8.83501,-0.0704 -13.22461,-0.21484 l 0.01,5.20312 c 4.38864,0.14246 8.80021,0.21485 13.2168,0.21289 l 0.002,0 0.002,0 c 20.25117,-0.0383 39.31606,-1.56726 56.10351,-4.24414 0.70415,9.54565 3.26357,18.13704 7.31641,25.05078 5.89384,10.05434 15.18823,16.61133 26.16601,16.61133 10.97779,0 21.26625,-6.40441 29.11524,-16.3125 0.40143,-0.50674 0.79254,-1.02938 1.18164,-1.55469 l -0.0176,-9.57226 c -1.59021,2.85614 -3.34597,5.50723 -5.24023,7.89844 -7.15351,9.03017 -16.10012,14.33984 -25.03907,14.33984 -8.93895,0 -16.47194,-5.15708 -21.67968,-14.04102 -3.64579,-6.21934 -6.0265,-14.24649 -6.63672,-23.29296 8.74871,-1.56414 16.81769,-3.44368 24.00586,-5.60352 10.98656,-3.30115 19.95106,-7.22152 26.35742,-11.75976 3.52339,-2.49596 6.33453,-5.25164 8.1543,-8.24024 l -0.0195,-10.4082 a 2.6002599,2.6002599 0 0 0 -0.31446,-0.0156 2.6002599,2.6002599 0 0 0 -2.55469,2.64258 c 0.008,3.74925 -2.59339,7.75694 -8.27148,11.7793 -5.67809,4.02235 -14.20816,7.82462 -24.84766,11.02148 -6.75789,2.03056 -14.37174,3.82185 -22.6582,5.32617 0.0198,-2.24444 0.1366,-4.53343 0.37695,-6.86718 1.43907,-13.97279 6.67071,-26.62219 13.82422,-35.65235 7.15352,-9.03016 16.10207,-14.33984 25.04102,-14.33984 7.69816,0 14.34946,3.83232 19.375,10.56836 l -0.0156,-7.77149 c -5.3414,-5.01453 -11.96524,-7.99804 -19.35937,-7.99804 z m 19.09961,128.16406 a 2.6002599,2.6002599 0 0 0 -2.56446,2.63476 c -0.004,3.222 -1.9213,6.63242 -6.20898,10.16407 -4.28768,3.53164 -10.81906,6.98696 -19.14453,10.03515 -16.65094,6.09639 -40.4431,10.62161 -68.14844,12.33594 l -2.43945,0.15039 0,52.53906 a 2.6002599,2.6002599 0 0 0 0.004,0.1211 35.679836,119.57143 89.891763 0 0 5.19532,-0.30078 l 0,-47.53907 c 27.00718,-1.84841 50.33285,-6.25641 67.17773,-12.42382 8.68354,-3.17929 15.67549,-6.79696 20.66211,-10.9043 2.52868,-2.08281 4.5715,-4.34322 5.97461,-6.75195 l -0.0195,-10.01953 a 2.6002599,2.6002599 0 0 0 -0.48828,-0.041 z"
         style="color:#000000;font-style:normal;font-variant:normal;font-weight:normal;font-stretch:normal;font-size:medium;line-height:normal;font-family:sans-serif;text-indent:0;text-align:start;text-decoration:none;text-decoration-line:none;text-decoration-style:solid;text-decoration-color:#000000;letter-spacing:normal;word-spacing:normal;text-transform:none;direction:ltr;block-progression:tb;writing-mode:lr-tb;baseline-shift:baseline;text-anchor:start;white-space:normal;clip-rule:nonzero;display:inline;overflow:visible;visibility:visible;opacity:1;isolation:auto;mix-blend-mode:normal;color-interpolation:sRGB;color-interpolation-filters:linearRGB;solid-color:#000000;solid-opacity:1;fill:#ffffff;fill-opacity:1;fill-rule:nonzero;stroke:none;stroke-width:5.19999981;stroke-linecap:round;stroke-linejoin:round;stroke-miterlimit:4;stroke-dasharray:none;stroke-dashoffset:23.22000122;stroke-opacity:1;color-rendering:auto;image-rendering:auto;shape-rendering:auto;text-rendering:auto;enable-background:accumulate"
         inkscape:connector-curvature="0" />
    </g>
    <g
       id="g5032"
       transform="matrix(0.94935023,-0.31421989,0.31421989,0.94935023,-324.02096,160.84308)">
      <path
         style="opacity:1;fill:#ffffff;fill-opacity:1;stroke:#f2c121;stroke-width:3.00000024;stroke-linejoin:round;stroke-miterlimit:4;stroke-dasharray:none;stroke-opacity:1"
         d="m 495.59261,407.57324 c -3.91529,24.92164 -21.43807,7.45987 -46.41885,11.59131 -24.8033,4.10209 -45.24865,-5.86705 -44.83713,-13.99161 0.23513,-4.64162 4.86396,-5.18003 46.84596,-15.3991 29.09262,-7.08158 47.73107,-3.33977 44.41002,17.7994 z"
         id="path5005"
         inkscape:connector-curvature="0"
         sodipodi:nodetypes="sssss" />
      <path
         sodipodi:nodetypes="ccccccccccccccc"
         inkscape:connector-curvature="0"
         id="path5017"
         d="m 468.38672,393.97545 c -0.41302,3.09716 -6.2e-4,8.22161 -0.51589,9.84014 -1.91197,0.70146 -3.89692,0.67553 -7.87083,1.67158 4.07677,-0.12517 6.86273,-0.73671 8.01834,-0.3181 0.55618,1.58168 0.4303,7.23237 0.92697,10.48021 0.41268,-3.2724 -0.002,-8.85815 0.5491,-10.52805 1.35739,-0.60223 10.03444,-1.4924 13.24376,-1.93515 0.26012,0.53175 0.28452,2.01692 0.41808,3.08331 0.12851,-1.03733 -0.0146,-2.39805 0.28515,-3.18259 1.4272,-0.19634 4.05665,-0.48389 5.42774,-0.74807 -1.38634,-0.0295 -4.01113,0.25163 -5.43601,0.3675 -0.29597,-0.5537 -0.24354,-2.56831 -0.43313,-3.81184 -0.13679,1.26453 0.15721,3.03098 -0.27148,3.86837 -3.17416,0.26558 -11.82927,1.17882 -13.28195,0.83157 -0.51858,-0.93814 -0.48696,-6.59819 -1.05985,-9.61888 z"
         style="fill:#000000;fill-rule:evenodd;stroke:none;stroke-width:0.1;stroke-linecap:butt;stroke-linejoin:miter;stroke-miterlimit:4;stroke-dasharray:none;stroke-opacity:1" />
    </g>
  </g>
</svg>
