<svg width="20" height="20" viewBox="0 0 20 20" fill="none" xmlns="http://www.w3.org/2000/svg">
<g clip-path="url(#clip0)">
<path d="M14.1667 17.5001V15.8334C14.1667 14.9494 13.8155 14.1015 13.1904 13.4764C12.5653 12.8513 11.7174 12.5001 10.8334 12.5001H4.16671C3.28265 12.5001 2.43481 12.8513 1.80968 13.4764C1.18456 14.1015 0.833374 14.9494 0.833374 15.8334V17.5001" stroke="#FAFAFA" stroke-width="2" stroke-linecap="round" stroke-linejoin="round"/>
<path d="M7.49996 9.16674C9.34091 9.16674 10.8333 7.67436 10.8333 5.83341C10.8333 3.99246 9.34091 2.50008 7.49996 2.50008C5.65901 2.50008 4.16663 3.99246 4.16663 5.83341C4.16663 7.67436 5.65901 9.16674 7.49996 9.16674Z" stroke="#FAFAFA" stroke-width="2" stroke-linecap="round" stroke-linejoin="round"/>
<path d="M19.1666 17.5001V15.8334C19.1661 15.0949 18.9203 14.3774 18.4678 13.7937C18.0153 13.21 17.3817 12.7931 16.6666 12.6084" stroke="#FAFAFA" stroke-width="2" stroke-linecap="round" stroke-linejoin="round"/>
<path d="M13.3334 2.60841C14.0504 2.792 14.6859 3.209 15.1397 3.79367C15.5936 4.37835 15.8399 5.09744 15.8399 5.83758C15.8399 6.57772 15.5936 7.29681 15.1397 7.88149C14.6859 8.46616 14.0504 8.88316 13.3334 9.06675" stroke="#FAFAFA" stroke-width="2" stroke-linecap="round" stroke-linejoin="round"/>
</g>
<defs>
<clipPath id="clip0">
<rect width="20" height="20" fill="white"/>
</clipPath>
</defs>
</svg>
